<svg xmlns="http://www.w3.org/2000/svg" viewBox="0 0 64 64" role="img" aria-label="Bewaarhet">
  <defs>
    <linearGradient id="shell" x1="10" x2="54" y1="16" y2="56" gradientUnits="userSpaceOnUse">
      <stop offset="0" stop-color="#73e8ff"/>
      <stop offset="0.45" stop-color="#0b8fff"/>
      <stop offset="1" stop-color="#2563ff"/>
    </linearGradient>
    <linearGradient id="face" x1="16" x2="48" y1="22" y2="48" gradientUnits="userSpaceOnUse">
      <stop offset="0" stop-color="#061e45"/>
      <stop offset="1" stop-color="#020713"/>
    </linearGradient>
    <filter id="glow" x="-40%" y="-40%" width="180%" height="180%">
      <feGaussianBlur stdDeviation="2.4" result="blur"/>
      <feMerge>
        <feMergeNode in="blur"/>
        <feMergeNode in="SourceGraphic"/>
      </feMerge>
    </filter>
  </defs>
  <rect width="64" height="64" rx="14" fill="#020713"/>
  <path d="M32 7 51 17.5 32 28 13 17.5 32 7Z" fill="#0b8fff" stroke="#9af3ff" stroke-width="2.5" filter="url(#glow)"/>
  <path d="M13 25c0-3 2-5 5-5l14 9 14-9c3 0 5 2 5 5v22c0 4-2.5 6.5-6.5 6.5h-25C15.5 53.5 13 51 13 47V25Z" fill="url(#face)" stroke="url(#shell)" stroke-width="4" filter="url(#glow)"/>
  <path d="M18 26 32 37 46 26" fill="none" stroke="#73e8ff" stroke-width="4" stroke-linecap="round" stroke-linejoin="round"/>
  <path d="M24 39.5 30.5 46 42 34.5" fill="none" stroke="#9af3ff" stroke-width="5" stroke-linecap="round" stroke-linejoin="round"/>
</svg>
