<svg xmlns="http://www.w3.org/2000/svg" viewBox="0 0 1200 630" role="img" aria-label="Bewaarhet social card">
  <defs>
    <radialGradient id="glow" cx="58%" cy="50%" r="54%">
      <stop offset="0" stop-color="#60a5ff" stop-opacity="0.75"/>
      <stop offset="0.42" stop-color="#255dff" stop-opacity="0.28"/>
      <stop offset="1" stop-color="#020713" stop-opacity="0"/>
    </radialGradient>
    <linearGradient id="bg" x1="0" x2="1" y1="0" y2="1">
      <stop offset="0" stop-color="#071b3a"/>
      <stop offset="0.58" stop-color="#061225"/>
      <stop offset="1" stop-color="#020713"/>
    </linearGradient>
    <linearGradient id="box" x1="0" x2="0" y1="0" y2="1">
      <stop offset="0" stop-color="#172a4f"/>
      <stop offset="1" stop-color="#071020"/>
    </linearGradient>
  </defs>
  <rect width="1200" height="630" fill="url(#bg)"/>
  <rect width="1200" height="630" fill="url(#glow)"/>
  <text x="82" y="86" font-family="Arial, sans-serif" font-size="32" font-weight="800" fill="#eef6ff">Bewaarhet</text>
  <text x="82" y="220" font-family="Arial, sans-serif" font-size="66" font-weight="800" fill="#ffffff">Jouw slimme</text>
  <text x="82" y="296" font-family="Arial, sans-serif" font-size="66" font-weight="800" fill="#60a5ff">document inbox.</text>
  <text x="82" y="374" font-family="Arial, sans-serif" font-size="34" fill="#c8d8ec">Mail je documenten. Wij bewaren ze veilig.</text>
  <text x="82" y="424" font-family="Arial, sans-serif" font-size="34" fill="#c8d8ec">Jij vindt ze later terug.</text>
  <rect x="710" y="390" width="330" height="128" rx="18" fill="url(#box)" stroke="#79d8ff" stroke-opacity="0.38" stroke-width="3"/>
  <rect x="760" y="414" width="230" height="24" rx="9" fill="#020713"/>
  <ellipse cx="875" cy="402" rx="260" ry="132" fill="#60a5ff" opacity="0.22"/>
  <text x="850" y="490" font-family="Arial, sans-serif" font-size="54" font-weight="900" fill="#8fdcff">B</text>
  <g fill="#f7fbff" stroke="#cce3ff" stroke-width="2">
    <rect x="724" y="166" width="94" height="124" rx="10" transform="rotate(-13 724 166)"/>
    <rect x="854" y="116" width="104" height="140" rx="10" transform="rotate(6 854 116)"/>
    <rect x="1002" y="184" width="86" height="112" rx="10" transform="rotate(14 1002 184)"/>
  </g>
  <text x="704" y="196" font-family="Arial, sans-serif" font-size="18" font-weight="800" fill="#12366d" transform="rotate(-13 704 196)">BON</text>
  <text x="876" y="154" font-family="Arial, sans-serif" font-size="18" font-weight="800" fill="#12366d" transform="rotate(6 876 154)">FACTUUR</text>
  <text x="1014" y="214" font-family="Arial, sans-serif" font-size="18" font-weight="800" fill="#245eea" transform="rotate(14 1014 214)">PDF</text>
</svg>
